<?xml version="1.0" encoding="UTF-8" standalone="no"?>
<svg
   className="no-print"
   viewBox="0 0 217979.81 393839.95"
   id="replace"
   version="1.1"
   width="217979.81"
   height="393839.97"
   xmlns="http://www.w3.org/2000/svg"
   xmlns:svg="http://www.w3.org/2000/svg">
  <defs
     id="defs44" />
  <path
     d="m 3334.2042,298.25665 a 21.1,21.1 0 0 0 2.77,6.6 c 1,1.58 3,2.4 4.77,3.12 0.45,0.18 0.88,0.36 1.28,0.54 a 122.07,122.07 0 0 0 15.65,5.92 51.48,51.48 0 0 0 11.86,2.37 c 0.47,0 0.94,0 1.41,0 a 23.07,23.07 0 0 0 10.54,-2.2 19.36,19.36 0 0 0 10.18,-13.17 14.66,14.66 0 0 0 0.25,-1.95 11,11 0 0 1 0.31,-2.13 c 0.09,-0.34 0.2,-0.68 0.3,-1 a 27.53,27.53 0 0 0 0.78,-3.07 81.22,81.22 0 0 0 1.17,-10.88 c 0.07,-1.47 0.09,-3 0.09,-4.47 0.27,-6.32 -1.74,-10.77 -6,-13.21 -12.39,-6.22 -23.45,-10.08 -33.83,-11.8 a 11.36,11.36 0 0 0 -1.47,-0.12 19.52,19.52 0 0 0 -10,3.33 18.44,18.44 0 0 0 -7.59,10.06 23.44,23.44 0 0 0 -0.34,7.41 29.4,29.4 0 0 1 0,5.47 c -0.05,0.41 -0.08,0.82 -0.12,1.22 a 11.6,11.6 0 0 1 -0.37,2.43 c -0.44,1.52 -0.95,3.29 -1.33,5.09 a 24.07,24.07 0 0 0 -0.31,10.44 z"
     className="tooth replace"
     id="2" />
  <path
     d="m 3360.9142,287.88665 a 8.94,8.94 0 0 0 3,-0.57 8.19,8.19 0 0 0 3,-2.75 c 0.86,-1.14 1.82,-2.22 2.63,-3.4 1.8,-2.62 3.37,-5.65 3.5,-8.9 a 9.54,9.54 0 0 0 -0.22,-2.55 12.86,12.86 0 0 0 -0.9,-2.48 c 0,0 -1,-0.57 -1.2,-0.68 a 25.57,25.57 0 0 1 -4.53,-3.34 c 3,1.56 6,3.89 12.24,4 a 13.06,13.06 0 0 1 -3.12,0.36 12.12,12.12 0 0 1 -2.18,-0.24 c 3,7.62 -2.63,14.9 -8.34,21.18 -0.25,0.27 0.53,2.39 0.63,2.75 a 25.16,25.16 0 0 0 1.06,2.9 31.71,31.71 0 0 0 3.07,5.37 c 5.75,-1.43 16.5,-0.46 16.5,0.32 a 50.8,50.8 0 0 0 -16.62,0.83 34.73,34.73 0 0 0 -12.4,5.57 10.34,10.34 0 0 1 4.33,3.62 c -3.51,-3.33 -8.34,-4.4 -14.19,-3.74 a 33.58,33.58 0 0 1 7.23,-0.53 4.15,4.15 0 0 0 2.63,-0.7 36.16,36.16 0 0 1 11.38,-5.09 27.39,27.39 0 0 1 -4.72,-11.24 25.37,25.37 0 0 1 -22.52,-7.88 c 2.33,2.54 10.4,8.03 19.74,7.19 z"
     id="path1" />
  <path
     d="m 3386.1142,260.74665 a 21.23,21.23 0 0 1 -6.21,-1.45 c -0.7,-0.23 -1.36,-0.46 -2,-0.63 -2.85,-0.82 -5.69,-1.79 -8.45,-2.87 a 144.06,144.06 0 0 1 -14.23,-6.82 l -1,-0.52 c -3.81,-2 -7.94,-4.72 -9.76,-9.86 -1.33,-3.77 -2.85,-9.29 -0.65,-13.62 a 79.18,79.18 0 0 0 7.48,-24 c 0.91,-6 5.71,-11.1 11.94,-12.78 a 36.2,36.2 0 0 1 9.37,-1.24 c 13.1,0 27,7.36 38.21,20.18 a 23.05,23.05 0 0 1 2,2.74 25.42,25.42 0 0 1 2.15,21.63 c -2.89,8 -7.25,15.49 -13.72,23.69 l -0.11,0.1 a 27,27 0 0 1 -14.71,5.44 z"
     className="tooth replace"
     id="3" />
  <path
     d="m 3369.3242,246.21665 a 32,32 0 0 0 13.57,-7.28 c -1.11,-1.34 -1.39,-3.47 -1.61,-5.18 -0.05,-0.37 -0.1,-0.73 -0.15,-1.05 a 69.49,69.49 0 0 1 -0.88,-9.22 3.88,3.88 0 0 1 -0.94,0.11 c -0.19,0 -0.36,0 -0.52,0 a 67.73,67.73 0 0 1 -7.65,-1 74.42,74.42 0 0 1 -7.77,-1.87 80.61,80.61 0 0 1 -7.82,-2.76 c -0.63,-0.26 -1.24,-0.55 -1.88,-0.79 0.65,0.15 1.32,0.21 2,0.34 0.68,0.13 1.34,0.27 2,0.42 1.33,0.31 2.64,0.67 3.94,1.08 2.17,0.69 4.3,1.47 6.52,2 a 43.82,43.82 0 0 0 5.68,1 c 0.79,0.09 1.58,0.17 2.37,0.23 0.79,0.06 1.81,0.19 2.71,0.2 a 2.63,2.63 0 0 0 1.41,-0.16 2.69,2.69 0 0 0 0.86,-1.26 l 0.08,-0.2 a 11.75,11.75 0 0 1 3.25,-4.15 22.27,22.27 0 0 1 2.41,-1.64 22.59,22.59 0 0 0 2,-1.36 35.65,35.65 0 0 0 -2.18,-14 2.34,2.34 0 0 0 -1.13,-1.21 c -0.53,-0.26 -1.05,-0.54 -1.55,-0.85 a 11.18,11.18 0 0 1 -1.37,-1.1 31,31 0 0 0 5.53,2.13 31.34,31.34 0 0 0 3.74,0.61 10,10 0 0 1 -2.5,0.24 8.29,8.29 0 0 1 -2.11,-0.34 c 0.1,0 0.29,0.73 0.33,0.84 0.11,0.3 0.22,0.59 0.32,0.89 0.21,0.6 0.4,1.2 0.58,1.8 a 37,37 0 0 1 0.85,3.72 c 0.19,1 0.32,2.08 0.42,3.12 0,0.53 0.08,1.05 0.11,1.58 0,0.26 0,0.53 0,0.79 a 4.58,4.58 0 0 0 0,0.83 3.81,3.81 0 0 0 0.9,-0.71 9.53,9.53 0 0 0 0.83,-0.85 18.78,18.78 0 0 0 1.84,-3 25.41,25.41 0 0 1 2.16,-3.18 c 0.2,-0.27 0.41,-0.52 0.63,-0.78 a 7.77,7.77 0 0 1 -0.57,1.79 7.29,7.29 0 0 1 -0.58,1.27 c -0.34,0.6 -0.74,1.55 -1.19,2.37 a 12.26,12.26 0 0 1 -1.45,2.3 25.53,25.53 0 0 1 -3.66,3.12 c -0.48,0.33 -1,0.64 -1.48,0.94 a 22.59,22.59 0 0 0 -2.3,1.56 10.6,10.6 0 0 0 -2.93,3.77 l -0.09,0.18 a 4.43,4.43 0 0 1 -0.86,1.41 h 0.06 a 69.23,69.23 0 0 0 0.89,9.63 q 0.07,0.49 0.15,1.08 c 0.29,2.22 0.65,5 2.7,5.43 l 1.29,0.29 c 4.52,1 6.89,1.88 11.49,1.25 l 4,-0.44 a 21.5,21.5 0 0 1 -6.81,1.6 44,44 0 0 1 -8.87,-1.34 l -1.29,-0.29 a 3.39,3.39 0 0 1 -1.1,-0.45 c -3.74,3.31 -8.65,5.77 -14.93,7.51 a 41.13,41.13 0 0 0 4.77,1.82 l 3,1.22 a 29.25,29.25 0 0 1 -6.1,-1.71 30.81,30.81 0 0 1 -5.85,-3 16.91,16.91 0 0 1 -4.31,-3.91 c -0.08,-0.11 -0.37,-0.42 -0.32,-0.54 a 5.16,5.16 0 0 1 1.39,1.13 c 0.53,0.48 1,0.78 1.45,1.18 a 30.66,30.66 0 0 0 2.93,2.11 7.08,7.08 0 0 0 1.35,0.66 3.58,3.58 0 0 0 2.24,0.07 z"
     id="path2" />
  <path
     d="m 3365.5242,168.81665 a 28.81,28.81 0 0 0 6,10.72 c 6.05,6.82 14.81,9.35 21.77,10.8 a 67.42,67.42 0 0 0 9.62,1.32 c 2.09,0.11 3.7,0.17 5.21,0.19 a 49.94,49.94 0 0 0 5.87,-0.25 c 6.71,-0.73 13.43,-6.65 15.3,-13.47 a 14.1,14.1 0 0 0 -1,-9.75 13.7,13.7 0 0 0 -1,-1.7 25.81,25.81 0 0 0 -2.6,-3.11 l -1.1,-1.2 c -1.73,-2 -3.52,-3.79 -4.9,-5.16 -3.49,-3.49 -8.9,-8.46 -15.4,-11.22 -4.59,-1.94 -10.18,-2.2 -16.21,-0.75 a 48,48 0 0 0 -15.08,6.59 17.62,17.62 0 0 0 -6.26,6.78 c -1.81,3.66 -1.17,7.07 -0.22,10.21 z"
     className="tooth replace"
     id="4" />
  <path
     d="m 3396.4942,175.53665 c -0.05,-4.24 2,-7.89 6,-10.87 a 33.35,33.35 0 0 1 -10.32,-11.24 l 1.74,1.9 c 6.24,7.41 10.19,10.53 19.12,12.33 l 2.86,0.4 c -0.63,0 -1.26,0.06 -1.87,0.05 a 21.42,21.42 0 0 1 -10.49,-2.77 c -4.18,2.94 -6.11,6.44 -5.91,10.65 a 17.87,17.87 0 0 1 8.42,7.49 l -2.19,-2 a 20.84,20.84 0 0 0 -7.05,-4.91 c 0,0 -0.27,-0.06 -0.27,-0.1 -3.11,-1.12 -6.69,-1.21 -11.86,-0.55 a 8.4,8.4 0 0 1 -1,0.07 h -2.31 c 5.95,-1.65 10.97,-1.82 15.13,-0.45 z"
     id="path3" />
  <path
     d="m 3408.9242,148.06665 a 41.76,41.76 0 0 1 -15.8,-9.43 c -2.64,-2.58 -4.3,-8.08 -5.06,-11.13 a 17.58,17.58 0 0 1 0,-9.31 c 2.15,-7.17 9.21,-11 14.75,-13 a 55.91,55.91 0 0 1 10.38,-2.55 l 1.16,-0.19 a 32.22,32.22 0 0 1 6.48,-0.61 11.6,11.6 0 0 1 2.32,0.32 11.81,11.81 0 0 1 2.89,1.12 42.17,42.17 0 0 1 7.73,5.48 89.67,89.67 0 0 1 10.28,11 c 1,1.22 1.93,2.47 2.88,3.72 0.56,0.74 1.13,1.48 1.7,2.21 a 12.36,12.36 0 0 1 2.62,7.86 14.43,14.43 0 0 1 -1,5.54 c -1.26,3.26 -3.71,6.32 -7.5,9.34 l -0.49,0.39 c -1.74,1.41 -3.54,2.87 -6,2.86 h -1 c -8.52,-0.14 -17.52,-0.63 -26.34,-3.62 z"
     className="tooth replace"
     id="5" />
  <path
     d="m 3418.1242,136.55665 c -0.36,-6 2.71,-10.77 9.13,-14.31 a 43.6,43.6 0 0 1 -12.15,-10 l 2.58,1.85 c 7.47,5.95 12.35,8.9 21.31,11.64 l 1.22,0.76 a 38,38 0 0 1 -11.79,-3.65 c -6.76,3.5 -9.75,8.15 -9.15,14.2 a 19.78,19.78 0 0 1 7.73,7.06 l -1.92,-1.92 c -6.29,-5.43 -11.43,-6.11 -20.2,-6 l -1.61,-0.17 c 5.8,-1.31 10.72,-1.14 14.85,0.54 z"
     id="path4" />
  <path
     d="m 3453.8142,110.89665 -1.09,-0.15 c -3.68,-0.5 -7.37,-1.17 -11,-2 -5,-1.14 -10.66,-2.61 -15.45,-5.72 l -0.53,-0.33 a 12.35,12.35 0 0 1 -2.61,-2 15.54,15.54 0 0 1 -2.42,-3.999999 23.82,23.82 0 0 1 -1.7,-5.6 c -1.73,-9.6 -0.41,-21.72 8.49,-26.92 a 25.6,25.6 0 0 1 10.7,-3.13 c 5.81,-0.54 10.56,-0.29 14.15,0.76 14.59,4.24 19.4,19.24 21,27.81 0.87,4.72 1.59,10.14 -0.8,14.789999 -2.26,4.39 -6.7,6.1 -10,6.76 a 15.6,15.6 0 0 1 -3.3,0.29 42.33,42.33 0 0 1 -5.44,-0.56 z"
     className="tooth replace"
     id="6" />
  <path
     d="m 3437.1742,75.176651 c 3.85,-4.81 9.51,-7 16.91,-6.51 l -0.14,-0.34 c -7.82,-0.86 -12.82,0.91 -16.73,6.34 z"
     id="path5" />
  <path
     d="m 3428.3342,95.106651 0.45,0.85 c -1.13,-5.57 0.12,-11.34 4,-17.56 l -0.63,0.23 c -4.18,6.48 -5.17,10.8 -3.82,16.48 z"
     id="path6" />
  <path
     d="m 3463.8842,67.656651 c 9.66,9.6 19.12,16.14 28.94,20 a 10.44,10.44 0 0 0 3.76,0.71 13.19,13.19 0 0 0 9.38,-3.82 17.09,17.09 0 0 0 3.69,-6.48 c 0.77,-2.58 0.44,-5.86 0.15,-8.75 -0.05,-0.52 -0.1,-1 -0.14,-1.49 a 68.75,68.75 0 0 0 -3.21,-15.61 60.53,60.53 0 0 0 -2.11,-5.73 c -0.3,-0.68 -0.61,-1.32 -0.93,-1.91 a 8.45,8.45 0 0 0 -4.6,-3.74 v -0.07 h -0.32 a 5.71,5.71 0 0 0 -0.58,-0.21 4.59,4.59 0 0 0 -1.7,-0.09 c -17.07,-1.92 -30.7,5.16 -35.1,18.5 v 0 a 5.89,5.89 0 0 0 -0.26,0.7 c -0.86,2.86 1.17,5.92 3.03,7.99 z"
     className="tooth replace"
     id="7" />
  <path
     d="m 3495.0742,48.086651 c -11.12,1.48 -19.73,5.91 -25.61,13.64 5.5,-9.18 14.28,-13.55 25.61,-13.64 z"
     id="path7" />
  <path
     d="m 3507.2642,51.926651 c 0.28,0.6 0.56,1.21 0.84,1.85 a 61.43,61.43 0 0 0 18.69,24.47 18.32,18.32 0 0 0 10.6,3.94 v 0 c 4.33,0 8.69,-1.91 13,-5.8 l 0.09,-0.1 c 5.7,-8.6 9.72,-19.06 12.29,-32 a 21.81,21.81 0 0 0 0.36,-7.89 c -0.31,-1.82 -0.88,-5.21 -2.67,-6.39 a 3.4,3.4 0 0 0 -0.69,-0.34 v 0 c -20.31,-8.75 -37.58,-6.72 -51.34,6 a 4.86,4.86 0 0 0 -1.73,1.36 c -1.3,1.66 -1.59,3.92 -1.71,5.92 -0.25,3.61 0.97,6.22 2.27,8.98 z"
     className="tooth replace"
     id="8" />
  <path
     d="m 3623.2942,43.336651 c -0.1,-2 -0.38,-4.27 -1.66,-5.94 a 4.86,4.86 0 0 0 -1.72,-1.37 c -13.63,-12.89 -30.88,-15.09 -51.27,-6.54 v 0 a 3.42,3.42 0 0 0 -0.7,0.33 c -1.8,1.17 -2.4,4.55 -2.73,6.37 a 21.88,21.88 0 0 0 0.28,7.88 c 2.44,12.93 6.36,23.43 12,32.09 l 0.09,0.1 c 4.23,3.93 8.57,5.92 12.91,5.92 v 0 a 18.37,18.37 0 0 0 10.62,-3.84 61.46,61.46 0 0 0 18.92,-24.29 c 0.29,-0.64 0.58,-1.25 0.87,-1.84 1.32,-2.74 2.56,-5.34 2.39,-8.87 z"
     className="tooth replace"
     id="9" />
  <path
     d="m 3666.9742,60.146651 c -0.08,-0.25 -0.17,-0.48 -0.26,-0.71 v 0 c -4.27,-13.38 -17.83,-20.59 -34.92,-18.84 a 4.86,4.86 0 0 0 -1.7,0.07 l -0.58,0.21 h -0.32 v 0.07 a 8.5,8.5 0 0 0 -4.64,3.7 c -0.32,0.59 -0.64,1.23 -1,1.9 -0.82,1.82 -1.49,3.74 -2.17,5.71 a 69.17,69.17 0 0 0 -3.35,15.58 c -0.05,0.47 -0.1,1 -0.16,1.49 -0.32,2.89 -0.68,6.16 0.07,8.75 a 17.14,17.14 0 0 0 3.62,6.51 13.15,13.15 0 0 0 9.34,3.91 10.44,10.44 0 0 0 3.77,-0.66 c 9.86,-3.8 19.38,-10.25 29.13,-19.75 1.94,-2.02 4.01,-5.07 3.17,-7.94 z"
     className="tooth replace"
     id="10" />
  <path
     d="m 3668.3542,111.40665 a 16.23,16.23 0 0 1 -3.3,-0.31 c -3.32,-0.69 -7.74,-2.45 -10,-6.86 -2.34,-4.669999 -1.57,-10.089999 -0.66,-14.799999 1.66,-8.55 6.63,-23.51 21.25,-27.6 3.61,-1 8.36,-1.22 14.16,-0.62 a 25.46,25.46 0 0 1 10.67,3.23 c 8.85,5.29 10.05,17.42 8.22,27 a 23.67,23.67 0 0 1 -1.74,5.58 15.73,15.73 0 0 1 -2.47,3.999999 12.53,12.53 0 0 1 -2.62,2 l -0.54,0.33 c -4.82,3.06 -10.53,4.48 -15.51,5.57 -3.6,0.79 -7.3,1.42 -11,1.89 l -1.1,0.14 a 42.3,42.3 0 0 1 -5.36,0.45 z"
     className="tooth replace"
     id="11" />
  <path
     d="m 3691.9642,151.84665 h -1.05 c -2.44,0 -4.23,-1.49 -6,-2.92 l -0.48,-0.39 c -3.76,-3.06 -6.18,-6.14 -7.41,-9.42 a 14.41,14.41 0 0 1 -0.92,-5.54 12.37,12.37 0 0 1 2.69,-7.84 c 0.58,-0.72 1.15,-1.46 1.72,-2.19 1,-1.24 1.92,-2.49 2.92,-3.7 a 89.83,89.83 0 0 1 10.39,-10.86 42.1,42.1 0 0 1 7.78,-5.41 11.8,11.8 0 0 1 5.22,-1.39 32.13,32.13 0 0 1 6.47,0.68 l 1.17,0.19 a 57,57 0 0 1 10.35,2.65 c 5.52,2 12.54,6 14.62,13.17 a 17.65,17.65 0 0 1 -0.11,9.31 c -0.79,3 -2.5,8.53 -5.17,11.08 a 41.62,41.62 0 0 1 -15.89,9.27 c -8.76,2.91 -17.82,3.31 -26.3,3.31 z"
     className="tooth replace"
     id="12" />
  <path
     d="m 3761.4042,159.50665 a 17.68,17.68 0 0 0 -6.19,-6.84 48,48 0 0 0 -15,-6.74 c -6,-1.51 -11.6,-1.31 -16.21,0.6 -6.53,2.69 -12,7.6 -15.51,11.06 -1.39,1.36 -3.2,3.16 -5,5.11 q -0.54,0.6 -1.11,1.2 a 25,25 0 0 0 -2.63,3.08 13,13 0 0 0 -1,1.69 14,14 0 0 0 -1.1,9.74 c 1.8,6.84 8.46,12.82 15.17,13.61 a 48.76,48.76 0 0 0 5.92,0.32 c 1.51,0 3.11,0 5.2,-0.14 a 68.32,68.32 0 0 0 9.64,-1.22 c 7,-1.38 15.76,-3.83 21.87,-10.59 a 28.79,28.79 0 0 0 6.08,-10.66 c 0.95,-3.14 1.62,-6.55 -0.13,-10.22 z"
     className="tooth replace"
     id="13" />
  <path
     d="m 3740.0842,261.43665 v 0 h -0.46 a 27.08,27.08 0 0 1 -14.66,-5.58 l -0.1,-0.1 c -6.39,-8.26 -10.68,-15.84 -13.49,-23.83 a 25.39,25.39 0 0 1 2.37,-21.59 20.28,20.28 0 0 1 2,-2.71 c 11.2,-12.59 25.07,-19.81 38.05,-19.81 a 36.27,36.27 0 0 1 9.71,1.33 c 6.21,1.74 11,6.92 11.81,12.9 a 79.16,79.16 0 0 0 7.25,24.07 c 2.15,4.36 0.58,9.86 -0.79,13.62 -1.86,5.12 -6,7.81 -9.85,9.77 l -1,0.51 a 143.94,143.94 0 0 1 -14.29,6.67 c -2.77,1.06 -5.62,2 -8.48,2.79 -0.6,0.17 -1.26,0.39 -2,0.61 a 21.82,21.82 0 0 1 -6.07,1.35 z"
     className="tooth replace"
     id="14" />
  <path
     d="m 3556.3642,39.276651 -1.09,-0.34 c -14,-3.73 -28.66,-2 -42.88,5 l 0.65,-0.48 c 14.59,-9.12 29.24,-10.23 43.32,-4.18 z"
     id="path8" />
  <path
     d="m 3791.3742,289.03665 c -0.37,-1.8 -0.86,-3.57 -1.29,-5.09 a 11.77,11.77 0 0 1 -0.35,-2.45 c 0,-0.39 0,-0.8 -0.1,-1.21 a 29.4,29.4 0 0 1 0.05,-5.47 23.4,23.4 0 0 0 -0.26,-7.41 18.43,18.43 0 0 0 -7.5,-10.13 19.3,19.3 0 0 0 -10,-3.43 9.8,9.8 0 0 0 -1.47,0.1 c -10.4,1.62 -21.5,5.37 -33.94,11.47 -4.28,2.4 -6.34,6.83 -6.12,13.15 0,1.5 0,3 0,4.47 a 83.19,83.19 0 0 0 1.06,10.89 27.19,27.19 0 0 0 0.76,3.08 c 0.09,0.34 0.19,0.68 0.29,1 a 11.06,11.06 0 0 1 0.28,2.13 14.57,14.57 0 0 0 0.24,2 19.36,19.36 0 0 0 10,13.27 23.27,23.27 0 0 0 10.52,2.3 h 1.41 a 52.7,52.7 0 0 0 11.89,-2.26 121,121 0 0 0 15.7,-5.77 c 0.4,-0.18 0.84,-0.35 1.29,-0.53 1.78,-0.7 3.8,-1.5 4.8,-3.07 a 21.2,21.2 0 0 0 2.84,-6.57 24.42,24.42 0 0 0 -0.1,-10.47 z"
     className="tooth replace"
     id="15" />
  <path
     d="m 3798.5313,347.36702 c -0.3455,-1.58922 -0.803,-3.15195 -1.2046,-4.49396 a 10.99078,10.391745 0 0 1 -0.3268,-2.16311 c 0,-0.34433 0,-0.70632 -0.093,-1.06831 a 27.453604,25.957289 0 0 1 0.047,-4.82947 21.850828,20.659883 0 0 0 -0.2428,-6.5423 17.209861,16.271865 0 0 0 -7.0034,-8.94378 18.022264,17.039989 0 0 0 -9.338,-3.02835 9.1512014,8.6524298 0 0 0 -1.3727,0.0883 c -9.7115,1.4303 -20.0766,4.74117 -31.693,10.12687 -3.9967,2.11896 -5.9203,6.03021 -5.7149,11.61015 0,1.32435 0,2.6487 0,3.94657 a 77.682494,73.448534 0 0 0 0.9899,9.61479 25.389915,24.006078 0 0 0 0.7096,2.71933 c 0.084,0.30019 0.1775,0.60038 0.2709,0.8829 a 10.327784,9.764885 0 0 1 0.2614,1.88058 13.605409,12.863868 0 0 0 0.2241,1.76581 18.078292,17.092963 0 0 0 9.338,11.71609 21.729434,20.545106 0 0 0 9.8235,2.03067 h 1.3167 a 49.211052,46.528883 0 0 0 11.1028,-1.99535 112.98932,106.83102 0 0 0 14.6606,-5.09434 c 0.3735,-0.15892 0.7844,-0.30902 1.2046,-0.46794 1.6622,-0.61803 3.5484,-1.32435 4.4822,-2.7105 a 19.796476,18.717501 0 0 0 2.652,-5.80066 22.8033,21.560442 0 0 0 -0.093,-9.24398 z"
     className="tooth replace"
     id="15-1"
     style="stroke-width:0.907992" />
  <path
     d="m 3760.4742,523.86665 a 30.44,30.44 0 0 1 -6.6,-0.77 76.67,76.67 0 0 1 -11.51,-3.87 l -2.8,-1.09 -1.58,-0.61 c -4.31,-1.64 -8.78,-3.33 -12.34,-6.38 a 15.61,15.61 0 0 1 -5.13,-8.22 c -0.63,-2.75 -0.21,-6.06 1.28,-10.12 h 0.14 a 29.43,29.43 0 0 1 3.11,-7.28 c 0.7,-1.29 1.42,-2.62 2.06,-4.07 0.45,-1 0.9,-2.15 1.35,-3.28 1.42,-3.55 2.9,-7.21 5.12,-10 a 28.59,28.59 0 0 1 13.4,-9.7 c 6.75,-2.14 14.69,-1.29 24.26,2.61 9.57,3.9 15.47,8.9 18,15.25 2.23,5.61 1.39,11.5 0.29,15.45 -0.94,3.36 -2.88,6.35 -4.75,9.24 -0.94,1.43 -1.9,2.92 -2.71,4.41 -0.54,1 -1,2 -1.57,3 -2.83,5.46 -5.76,11.11 -11.47,13.69 a 20.74,20.74 0 0 1 -8.55,1.74 z"
     className="tooth replace"
     id="18" />
  <path
     d="m 3766.8842,557.27665 a 28.76,28.76 0 0 0 -0.5,-3.77 c -0.17,-0.91 -0.33,-1.85 -0.43,-2.77 -0.22,-2.21 -0.42,-4.43 -0.61,-6.64 -0.07,-0.86 -0.1,-1.72 -0.14,-2.57 -0.12,-2.8 -0.24,-5.69 -1.65,-8.37 -0.28,-0.52 -0.6,-1 -0.91,-1.48 -1.66,-2.55 -4.54,-4.39 -6.85,-5.87 a 43.33,43.33 0 0 0 -8.35,-4.15 41.42,41.42 0 0 0 -18.33,-2.51 c -4.94,0.47 -11.77,1.74 -16.31,5.09 l -0.06,0.1 a 1.48,1.48 0 0 0 -0.29,0.22 c -6.86,6.28 -10.53,16.3 -13.76,25.14 -1,2.87 -2,5.58 -3.08,8 -2.84,6.55 -1.41,16.3 5.84,20.64 l 0.74,0.44 c 5.39,3.23 10.48,6.28 16.29,8.55 a 81.09,81.09 0 0 0 9.37,3 c 0.67,0.17 1.35,0.37 2,0.56 a 24,24 0 0 0 6.6,1.25 h 0.13 a 16.35,16.35 0 0 0 7.7,-2.2 c 4.71,-2.58 8.55,-6.67 12,-10.71 a 66.52,66.52 0 0 0 7.24,-10.45 c 2.16,-3.85 3.56,-7.25 3.36,-11.5 z"
     className="tooth replace"
     id="19" />
  <path
     d="m 3747.7442,570.66665 1.07,0.54 c 0.35,0.13 -0.07,-0.14 -1.07,-0.54 z"
     id="path9" />
  <path
     d="m 3736.0342,543.18665 a 17.62,17.62 0 0 1 -1.29,-11.85 0.71,0.71 0 0 1 0.84,-0.53 22.87,22.87 0 0 0 4.11,0.36 c 1,0 2.07,-0.05 3.18,-0.16 a 40.17,40.17 0 0 1 -14.57,-3.93 12.06,12.06 0 0 0 4.92,3.1 0.72,0.72 0 0 1 0.47,0.84 18.65,18.65 0 0 0 1.33,12.64 25.57,25.57 0 0 0 -10.45,10.34 v 0 0 0.05 a 33.6,33.6 0 0 1 -19.83,-4.21 c 4.17,3.57 10.23,5.37 18,5.37 0.47,0 1,0 1.44,0 a 13.22,13.22 0 0 0 0.67,10.27 8.93,8.93 0 0 0 -1,0.41 c -3.54,1.81 -5.77,5.64 -6.83,11.66 a 19.58,19.58 0 0 0 -8,-0.13 38.89,38.89 0 0 1 17.18,4.78 23.61,23.61 0 0 0 -8.08,-4.37 c 0.69,-5.94 3,-9 6.27,-11 5.22,-3 19.22,2.08 23.37,3.83 -7.94,-4 -15.91,-7.13 -21.84,-5.56 -1.63,-3 -1.81,-6.44 -0.48,-10.31 l 0.11,-0.32 c 5.46,-13.07 23.86,-13.08 30.27,-13 -7.85,-0.91 -14.41,-0.13 -19.79,1.72 z"
     id="path10" />
  <path
     d="m 3713.2742,631.40665 c -11.39,0 -21.43,-4.83 -30,-14.44 v 0 a 14.59,14.59 0 0 1 -3.45,-11.87 24.49,24.49 0 0 1 10.21,-16.22 24.16,24.16 0 0 1 16.54,-3.71 c 6.92,0.81 13.61,3.71 19.8,6.71 a 24,24 0 0 1 10.93,11.79 19.1,19.1 0 0 1 0.24,15.57 16.1,16.1 0 0 1 -4,5.39 c -1.44,1.27 -5.16,4.33 -8.72,5.24 a 46.22,46.22 0 0 1 -11.55,1.54 z"
     className="tooth replace"
     id="20" />
  <path
     d="m 3701.2142,600.17665 c 1.73,-2.4 4.46,-3.91 8.09,-4.49 2.64,2 7.41,3.66 13.5,5.31 -7.48,-2.79 -13.62,-5.71 -15.8,-9 a 4.21,4.21 0 0 0 1.26,2.82 12.44,12.44 0 0 0 -7.94,4.77 c -0.13,0.19 -0.23,0.4 -0.36,0.59 -1.62,-2.26 -4.24,-3.6 -7.44,-4.43 a 15.44,15.44 0 0 1 6.49,4.85 1.11,1.11 0 0 1 0.1,1.11 c -1.58,3.52 -1.85,8.26 -0.86,14.36 a 25.51,25.51 0 0 0 -7.59,-1.16 h -0.35 a 65.4,65.4 0 0 1 19,7.18 34.85,34.85 0 0 0 -9.84,-5.63 c -1.32,-7.38 -0.73,-12.84 1.74,-16.28 z"
     id="path11" />
  <path
     d="m 3687.5942,668.92665 c -12.59,0 -20.46,-8.39 -23.38,-24.92 -0.73,-4.07 -1.14,-9.26 2.11,-13.22 3.86,-4.7 10.22,-5.29 14.66,-5.32 h 0.34 a 50,50 0 0 1 16.91,3 c 6,2.14 9.94,5 12.12,8.84 2.75,4.78 5.34,10.47 3.69,16.42 a 16.43,16.43 0 0 1 -6.4,8.81 28.27,28.27 0 0 1 -7.81,4.23 41.17,41.17 0 0 1 -12.24,2.16 z"
     className="tooth replace"
     id="21" />
  <path
     d="m 3675.2842,647.33665 c 2,-6.66 6,-10.2 12.17,-10.79 a 1.6,1.6 0 0 1 1.12,0.37 c 2.55,2 7.39,3.4 11.89,4.48 0,0 -9.69,-3.68 -11.78,-5.85 a 11.37,11.37 0 0 1 -1.71,-3.68 3.81,3.81 0 0 0 -0.07,3 0.54,0.54 0 0 1 -0.44,0.74 c -5.86,0.85 -9.89,4.45 -12,10.74 a 0.63,0.63 0 0 1 -0.92,0.35 6.6,6.6 0 0 0 -3.16,-1.12 42.25,42.25 0 0 1 10.73,12.35 c -1.79,-4.35 -3.64,-7.52 -5.59,-9.56 a 1,1 0 0 1 -0.24,-1.03 z"
     id="path12" />
  <path
     d="m 3659.3142,696.03665 c -1.3,0 -2.59,-0.08 -3.68,-0.16 a 41,41 0 0 1 -12,-2.69 c -3.72,-1.56 -5.84,-4.61 -6.49,-9.33 a 67,67 0 0 1 -0.73,-20.39 c 1.07,-7.59 4.75,-11.29 11,-10.94 10.61,2.54 19.47,6.87 26.45,12.87 a 17.85,17.85 0 0 1 4.65,6.71 9.29,9.29 0 0 1 0.94,3.84 20,20 0 0 1 -1.86,6.29 v 0.14 a 29.13,29.13 0 0 1 -3,5.44 17.24,17.24 0 0 1 -15.3,8.22 z"
     className="tooth replace"
     id="22" />
  <path
     d="m 3645.6842,689.04665 a 50.27,50.27 0 0 0 27.26,-16.28 c -5.2,8.72 -14.39,14.2 -27.26,16.28 z"
     id="path13" />
  <path
     d="m 3638.2742,688.91665 -0.07,-0.11 a 86.62,86.62 0 0 0 -18.85,-19.53 12.47,12.47 0 0 0 -1.11,-0.66 10.34,10.34 0 0 0 -12.34,1.62 9,9 0 0 0 -2,3 27.39,27.39 0 0 0 -1.27,3.62 65.46,65.46 0 0 0 -1.5,6.9 v 0.29 a 161,161 0 0 0 -2,16.14 c 0.37,4.08 2.28,6.65 5.64,7.61 a 40.26,40.26 0 0 0 14.8,3.25 c 7.85,0 14.26,-3.52 19.09,-10.51 1.57,-2.98 1.44,-6.88 -0.39,-11.62 z"
     className="tooth replace"
     id="23" />
  <path
     d="m 3634.7442,693.82665 a 110.93,110.93 0 0 1 -27.27,8.29 h 0.12 c 10.4,0 19.54,-2.78 27.15,-8.29 z"
     id="path14" />
  <path
     d="m 3597.9442,696.33665 a 10.29,10.29 0 0 0 -0.73,-2.15 c -0.78,-1.65 -1.42,-3.38 -2.17,-5 a 83.78,83.78 0 0 0 -4,-8 44.15,44.15 0 0 0 -4.1,-5.94 c -0.21,-0.26 -0.43,-0.51 -0.65,-0.76 -5.33,-6.08 -10.76,-5.48 -15.71,1.79 a 52.38,52.38 0 0 0 -7.6,19 c -0.25,1.23 -0.48,2.5 -0.67,3.77 a 10.19,10.19 0 0 0 0,4.15 7.71,7.71 0 0 0 4.71,5.62 33.48,33.48 0 0 0 12.28,3.52 c 0.48,0 1,0.05 1.45,0.05 4,0 7.91,-1 12.72,-3.27 a 10,10 0 0 0 3.23,-2.2 c 1.88,-2.08 1.84,-5.27 1.63,-7.88 a 19.65,19.65 0 0 0 -0.39,-2.7 z"
     className="tooth replace"
     id="24" />
  <path
     d="m 3523.5442,701.12665 c -0.26,2.61 -0.35,5.8 1.48,7.91 a 10.13,10.13 0 0 0 3.2,2.26 c 4.77,2.35 8.67,3.43 12.66,3.5 0.48,0 1,0 1.45,0 a 33.42,33.42 0 0 0 12.34,-3.3 7.72,7.72 0 0 0 4.81,-5.53 10.09,10.09 0 0 0 0.1,-4.15 c -0.17,-1.27 -0.37,-2.54 -0.6,-3.78 a 52.15,52.15 0 0 0 -7.24,-19.1 c -4.82,-7.36 -10.24,-8.06 -15.68,-2.08 -0.23,0.25 -0.45,0.49 -0.66,0.74 a 44.8,44.8 0 0 0 -4.2,5.87 81.47,81.47 0 0 0 -4.2,7.88 c -0.78,1.66 -1.46,3.37 -2.27,5 a 11,11 0 0 0 -0.76,2.13 19.86,19.86 0 0 0 -0.43,2.65 z"
     className="tooth replace"
     id="25" />
  <path
     d="m 3483.1842,701.97665 c 4.7,7.08 11,10.71 18.9,10.86 a 40.47,40.47 0 0 0 14.85,-3 c 3.37,-0.9 5.34,-3.43 5.78,-7.51 a 157.59,157.59 0 0 0 -1.68,-16.17 l -0.05,-0.29 a 62.68,62.68 0 0 0 -1.37,-6.92 27.29,27.29 0 0 0 -1.2,-3.65 9.26,9.26 0 0 0 -1.94,-3 10.35,10.35 0 0 0 -12.31,-1.84 c -0.38,0.2 -0.76,0.41 -1.12,0.64 a 86.86,86.86 0 0 0 -19.2,19.18 l -0.07,0.12 c -1.92,4.7 -2.12,8.6 -0.59,11.58 z"
     className="tooth replace"
     id="26" />
  <path
     d="m 3764.9442,288.82665 a 9,9 0 0 1 -3,-0.61 8.1,8.1 0 0 1 -3,-2.77 c -0.84,-1.15 -1.79,-2.24 -2.58,-3.42 -1.79,-2.64 -3.32,-5.69 -3.42,-8.94 a 9.86,9.86 0 0 1 0.24,-2.54 12.79,12.79 0 0 1 0.93,-2.48 c 0,0 1,-0.56 1.21,-0.67 a 25.44,25.44 0 0 0 4.55,-3.29 c -3,1.53 -6.05,3.83 -12.28,3.89 a 13.21,13.21 0 0 0 3.13,0.39 11.35,11.35 0 0 0 2.18,-0.22 c -3.09,7.59 2.49,14.93 8.13,21.26 0.24,0.27 -0.55,2.38 -0.66,2.75 a 27,27 0 0 1 -1.08,2.88 31.85,31.85 0 0 1 -3.13,5.35 c -5.74,-1.49 -16.49,-0.63 -16.5,0.15 a 50.78,50.78 0 0 1 16.61,1 35,35 0 0 1 12.47,5.68 10.35,10.35 0 0 0 -4.37,3.59 c 3.55,-3.3 8.39,-4.33 14.23,-3.61 a 34.05,34.05 0 0 0 -7.22,-0.6 4.14,4.14 0 0 1 -2.63,-0.72 36,36 0 0 0 -11.33,-5.2 27.38,27.38 0 0 0 4.83,-11.2 25.17,25.17 0 0 0 17.82,-3.69 25.55,25.55 0 0 0 4.78,-4 c -2.45,2.53 -10.57,7.94 -19.91,7.02 z"
     id="path15" />
  <path
     d="m 3772.3614,345.67831 a 8.4041645,7.946109 0 0 1 -2.8014,-0.53857 7.5637481,7.1514981 0 0 1 -2.8014,-2.44564 c -0.7844,-1.01534 -1.6715,-1.9777 -2.4092,-3.01952 -1.6715,-2.33086 -3.1002,-5.02371 -3.1936,-7.89314 a 9.2072291,8.7054038 0 0 1 0.2241,-2.24256 11.943252,11.292304 0 0 1 0.8685,-2.1896 c 0,0 0.9338,-0.49442 1.1299,-0.59154 a 23.755772,22.461001 0 0 0 4.2487,-2.90475 c -2.8014,1.35084 -5.6494,3.38151 -11.467,3.43449 a 12.335446,11.663122 0 0 0 2.9228,0.34433 10.598585,10.020926 0 0 0 2.0357,-0.19424 c -2.8855,6.70122 2.3251,13.18171 7.5917,18.77048 0.2241,0.23838 -0.5136,2.1013 -0.6163,2.42797 a 25.212494,23.838327 0 0 1 -1.0085,2.54276 29.741404,28.120397 0 0 1 -2.9228,4.72352 c -5.3599,-1.31552 -15.3983,-0.55623 -15.4076,0.13244 a 47.418164,44.833713 0 0 1 15.5104,0.8829 32.682862,30.901535 0 0 1 11.6444,5.01487 9.6647892,9.1380253 0 0 0 -4.0807,3.16962 c 3.315,-2.91357 7.8346,-3.82296 13.2879,-3.18727 a 31.795756,30.062779 0 0 0 -6.742,-0.52974 3.8659157,3.6552101 0 0 1 -2.4559,-0.63569 33.616658,31.784436 0 0 0 -10.5799,-4.59109 25.567336,24.173829 0 0 0 4.5103,-9.88849 23.503647,22.222618 0 0 0 16.6402,-3.2579 23.858489,22.55812 0 0 0 4.4636,-3.53161 c -2.2878,2.23374 -9.8703,7.01024 -18.5919,6.19797 z"
     id="path15-8"
     style="stroke-width:0.907992" />
  <path
     d="m 3329.842,347.44616 c 0.3455,-1.58922 0.8031,-3.15195 1.2046,-4.49396 a 10.99078,10.391745 0 0 0 0.3268,-2.16311 c 0,-0.34433 0,-0.70632 0.093,-1.06831 a 27.453604,25.957289 0 0 0 -0.047,-4.82947 21.850828,20.659883 0 0 1 0.2428,-6.5423 17.209861,16.271865 0 0 1 7.0035,-8.94378 18.022264,17.039989 0 0 1 9.338,-3.02835 9.1512014,8.6524298 0 0 1 1.3726,0.0883 c 9.7115,1.4303 20.0767,4.74117 31.6931,10.12687 3.9966,2.11896 5.9202,6.03021 5.7148,11.61015 0,1.32435 0,2.6487 0,3.94657 a 77.682494,73.448534 0 0 1 -0.9898,9.61479 25.389915,24.006078 0 0 1 -0.7097,2.71933 c -0.084,0.30019 -0.1774,0.60038 -0.2708,0.8829 a 10.327784,9.764885 0 0 0 -0.2615,1.88058 13.605409,12.863868 0 0 1 -0.2241,1.76581 18.078292,17.092963 0 0 1 -9.3379,11.71609 21.729434,20.545106 0 0 1 -9.8236,2.03067 h -1.3166 a 49.211052,46.528883 0 0 1 -11.1029,-1.99535 112.98932,106.83102 0 0 1 -14.6606,-5.09434 c -0.3735,-0.15892 -0.7843,-0.30902 -1.2046,-0.46794 -1.6621,-0.61803 -3.5484,-1.32435 -4.4822,-2.7105 a 19.796476,18.717501 0 0 1 -2.652,-5.80066 22.8033,21.560442 0 0 1 0.093,-9.24398 z"
     className="tooth replace"
     id="15-1-2"
     style="stroke-width:0.907992" />
  <path
     d="m 3356.012,345.75745 a 8.4041645,7.946109 0 0 0 2.8014,-0.53857 7.5637481,7.1514981 0 0 0 2.8014,-2.44564 c 0.7843,-1.01534 1.6714,-1.9777 2.4091,-3.01952 1.6715,-2.33086 3.1003,-5.02371 3.1936,-7.89314 a 9.2072291,8.7054038 0 0 0 -0.2241,-2.24256 11.943252,11.292304 0 0 0 -0.8684,-2.1896 c 0,0 -0.9338,-0.49442 -1.1299,-0.59154 a 23.755772,22.461001 0 0 1 -4.2488,-2.90475 c 2.8014,1.35084 5.6495,3.38151 11.467,3.43449 a 12.335446,11.663122 0 0 1 -2.9227,0.34433 10.598585,10.020926 0 0 1 -2.0357,-0.19424 c 2.8854,6.70122 -2.3252,13.18171 -7.5918,18.77048 -0.2241,0.23838 0.5136,2.1013 0.6163,2.42797 a 25.212494,23.838327 0 0 0 1.0085,2.54276 29.741404,28.120397 0 0 0 2.9228,4.72352 c 5.36,-1.31552 15.3983,-0.55623 15.4076,0.13244 a 47.418164,44.833713 0 0 0 -15.5103,0.8829 32.682862,30.901535 0 0 0 -11.6444,5.01487 9.6647892,9.1380253 0 0 1 4.0806,3.16962 c -3.3149,-2.91357 -7.8345,-3.82296 -13.2879,-3.18727 a 31.795756,30.062779 0 0 1 6.742,-0.52974 3.8659157,3.6552101 0 0 0 2.4559,-0.63569 33.616658,31.784436 0 0 1 10.5799,-4.59109 25.567336,24.173829 0 0 1 -4.5102,-9.88849 23.503647,22.222618 0 0 1 -16.6403,-3.2579 23.858489,22.55812 0 0 1 -4.4635,-3.53161 c 2.2878,2.23374 9.8702,7.01024 18.5919,6.19797 z"
     id="path15-8-0"
     style="stroke-width:0.907992" />
  <path
     d="m 3326.5686,429.55627 c 0.3455,1.58922 0.8031,3.15195 1.2046,4.49396 a 10.99078,10.391745 0 0 1 0.3268,2.16311 c 0,0.34433 0,0.70632 0.093,1.06831 a 27.453604,25.957289 0 0 1 -0.047,4.82947 21.850828,20.659883 0 0 0 0.2428,6.5423 17.209861,16.271865 0 0 0 7.0035,8.94378 18.022264,17.039989 0 0 0 9.3379,3.02835 9.1512014,8.6524298 0 0 0 1.3727,-0.0883 c 9.7115,-1.4303 20.0766,-4.74117 31.6931,-10.12687 3.9966,-2.11896 5.9202,-6.03021 5.7148,-11.61015 0,-1.32435 0,-2.6487 0,-3.94657 a 77.682494,73.448534 0 0 0 -0.9898,-9.61479 25.389915,24.006078 0 0 0 -0.7097,-2.71933 c -0.084,-0.30019 -0.1774,-0.60038 -0.2708,-0.8829 a 10.327784,9.764885 0 0 1 -0.2615,-1.88058 13.605409,12.863868 0 0 0 -0.2241,-1.76581 18.078292,17.092963 0 0 0 -9.3379,-11.71609 21.729434,20.545106 0 0 0 -9.8236,-2.03067 h -1.3166 a 49.211052,46.528883 0 0 0 -11.1029,1.99535 112.98932,106.83102 0 0 0 -14.6606,5.09434 c -0.3735,0.15892 -0.7844,0.30902 -1.2046,0.46794 -1.6621,0.61803 -3.5484,1.32435 -4.4822,2.7105 a 19.796476,18.717501 0 0 0 -2.652,5.80066 22.8033,21.560442 0 0 0 0.093,9.24398 z"
     className="tooth replace"
     id="15-1-2-4"
     style="stroke-width:0.907992" />
  <path
     d="m 3352.7386,431.24498 a 8.4041645,7.946109 0 0 1 2.8014,0.53857 7.5637481,7.1514981 0 0 1 2.8013,2.44564 c 0.7844,1.01534 1.6715,1.9777 2.4092,3.01952 1.6715,2.33086 3.1002,5.02371 3.1936,7.89314 a 9.2072291,8.7054038 0 0 1 -0.2241,2.24256 11.943252,11.292304 0 0 1 -0.8684,2.1896 c 0,0 -0.9338,0.49442 -1.1299,0.59154 a 23.755772,22.461001 0 0 0 -4.2488,2.90475 c 2.8014,-1.35084 5.6495,-3.38151 11.467,-3.43449 a 12.335446,11.663122 0 0 0 -2.9228,-0.34433 10.598585,10.020926 0 0 0 -2.0356,0.19424 c 2.8854,-6.70122 -2.3252,-13.18171 -7.5918,-18.77048 -0.2241,-0.23838 0.5136,-2.1013 0.6163,-2.42797 a 25.212494,23.838327 0 0 1 1.0085,-2.54276 29.741404,28.120397 0 0 1 2.9228,-4.72352 c 5.36,1.31552 15.3983,0.55623 15.4076,-0.13244 a 47.418164,44.833713 0 0 1 -15.5103,-0.8829 32.682862,30.901535 0 0 1 -11.6445,-5.01487 9.6647892,9.1380253 0 0 0 4.0807,-3.16962 c -3.3149,2.91357 -7.8345,3.82296 -13.2879,3.18727 a 31.795756,30.062779 0 0 0 6.742,0.52974 3.8659157,3.6552101 0 0 1 2.4559,0.63569 33.616658,31.784436 0 0 0 10.5799,4.59109 25.567336,24.173829 0 0 0 -4.5102,9.88849 23.503647,22.222618 0 0 0 -16.6403,3.2579 23.858489,22.55812 0 0 0 -4.4635,3.53161 c 2.2878,-2.23374 9.8702,-7.01024 18.5919,-6.19797 z"
     id="path15-8-0-5"
     style="stroke-width:0.907992" />
  <path
     d="m 3801.0606,430.73242 c -0.3456,1.58922 -0.8031,3.15195 -1.2046,4.49396 a 10.99078,10.391745 0 0 0 -0.3269,2.16311 c 0,0.34433 0,0.70632 -0.093,1.06831 a 27.453604,25.957289 0 0 0 0.047,4.82947 21.850828,20.659883 0 0 1 -0.2428,6.5423 17.209861,16.271865 0 0 1 -7.0034,8.94378 18.022264,17.039989 0 0 1 -9.338,3.02835 9.1512014,8.6524298 0 0 1 -1.3727,-0.0883 c -9.7114,-1.4303 -20.0766,-4.74117 -31.693,-10.12687 -3.9967,-2.11896 -5.9203,-6.03021 -5.7148,-11.61015 0,-1.32435 0,-2.6487 0,-3.94657 a 77.682494,73.448534 0 0 1 0.9898,-9.61479 25.389915,24.006078 0 0 1 0.7097,-2.71933 c 0.084,-0.30019 0.1774,-0.60038 0.2708,-0.8829 a 10.327784,9.764885 0 0 0 0.2614,-1.88058 13.605409,12.863868 0 0 1 0.2241,-1.76581 18.078292,17.092963 0 0 1 9.338,-11.71609 21.729434,20.545106 0 0 1 9.8235,-2.03067 h 1.3167 a 49.211052,46.528883 0 0 1 11.1028,1.99535 112.98932,106.83102 0 0 1 14.6606,5.09434 c 0.3735,0.15892 0.7844,0.30902 1.2046,0.46794 1.6622,0.61803 3.5484,1.32435 4.4822,2.7105 a 19.796476,18.717501 0 0 1 2.652,5.80066 22.8033,21.560442 0 0 1 -0.093,9.24398 z"
     className="tooth replace"
     id="15-1-2-4-4"
     style="stroke-width:0.907992" />
  <path
     d="m 3774.8906,432.42113 a 8.4041645,7.946109 0 0 0 -2.8014,0.53857 7.5637481,7.1514981 0 0 0 -2.8014,2.44564 c -0.7844,1.01534 -1.6715,1.9777 -2.4092,3.01952 -1.6715,2.33086 -3.1002,5.02371 -3.1936,7.89314 a 9.2072291,8.7054038 0 0 0 0.2242,2.24256 11.943252,11.292304 0 0 0 0.8684,2.1896 c 0,0 0.9338,0.49442 1.1299,0.59154 a 23.755772,22.461001 0 0 1 4.2487,2.90475 c -2.8013,-1.35084 -5.6494,-3.38151 -11.467,-3.43449 a 12.335446,11.663122 0 0 1 2.9228,-0.34433 10.598585,10.020926 0 0 1 2.0357,0.19424 c -2.8854,-6.70122 2.3251,-13.18171 7.5918,-18.77048 0.2241,-0.23838 -0.5136,-2.1013 -0.6164,-2.42797 a 25.212494,23.838327 0 0 0 -1.0085,-2.54276 29.741404,28.120397 0 0 0 -2.9227,-4.72352 c -5.36,1.31552 -15.3983,0.55623 -15.4077,-0.13244 a 47.418164,44.833713 0 0 0 15.5104,-0.8829 32.682862,30.901535 0 0 0 11.6444,-5.01487 9.6647892,9.1380253 0 0 1 -4.0807,-3.16962 c 3.315,2.91357 7.8346,3.82296 13.2879,3.18727 a 31.795756,30.062779 0 0 1 -6.742,0.52974 3.8659157,3.6552101 0 0 0 -2.4558,0.63569 33.616658,31.784436 0 0 1 -10.58,4.59109 25.567336,24.173829 0 0 1 4.5103,9.88849 23.503647,22.222618 0 0 1 16.6402,3.2579 23.858489,22.55812 0 0 1 4.4636,3.53161 c -2.2878,-2.23374 -9.8703,-7.01024 -18.5919,-6.19797 z"
     id="path15-8-0-5-0"
     style="stroke-width:0.907992" />
  <path
     d="m 3756.9542,247.07665 a 32.11,32.11 0 0 1 -13.51,-7.41 c 1.13,-1.33 1.43,-3.47 1.67,-5.17 0,-0.37 0.1,-0.73 0.15,-1 a 71.36,71.36 0 0 0 1,-9.22 3.39,3.39 0 0 0 0.93,0.12 h 0.52 a 67.76,67.76 0 0 0 7.66,-0.88 73.85,73.85 0 0 0 7.79,-1.79 80.7,80.7 0 0 0 7.85,-2.69 c 0.63,-0.25 1.25,-0.53 1.88,-0.77 -0.64,0.15 -1.32,0.2 -2,0.32 -0.68,0.12 -1.34,0.26 -2,0.41 -1.33,0.29 -2.65,0.64 -3.95,1 -2.18,0.67 -4.32,1.42 -6.55,1.95 a 45.46,45.46 0 0 1 -5.68,0.94 c -0.79,0.08 -1.58,0.15 -2.38,0.21 -0.8,0.06 -1.81,0.17 -2.71,0.17 a 2.47,2.47 0 0 1 -1.4,-0.18 2.76,2.76 0 0 1 -0.85,-1.27 l -0.08,-0.19 a 11.76,11.76 0 0 0 -3.21,-4.19 22.23,22.23 0 0 0 -2.39,-1.66 22.67,22.67 0 0 1 -2,-1.38 35.55,35.55 0 0 1 2.32,-14 2.34,2.34 0 0 1 1.14,-1.2 c 0.53,-0.26 1.05,-0.53 1.56,-0.84 a 10.93,10.93 0 0 0 1.38,-1.08 23.55,23.55 0 0 1 -9.3,2.65 9.94,9.94 0 0 0 2.49,0.26 8.24,8.24 0 0 0 2.12,-0.31 c -0.1,0 -0.29,0.72 -0.34,0.83 l -0.33,0.89 c -0.21,0.59 -0.41,1.19 -0.59,1.79 a 36,36 0 0 0 -0.89,3.72 c -0.2,1 -0.34,2.07 -0.45,3.11 0,0.53 -0.09,1.05 -0.13,1.58 0,0.26 0,0.53 0,0.79 a 4.44,4.44 0 0 1 0,0.82 3.36,3.36 0 0 1 -0.89,-0.71 7.39,7.39 0 0 1 -0.82,-0.86 17.77,17.77 0 0 1 -1.82,-3.06 24.3,24.3 0 0 0 -2.12,-3.2 q -0.3,-0.41 -0.63,-0.78 a 7.71,7.71 0 0 0 0.55,1.79 8.61,8.61 0 0 0 0.57,1.28 c 0.34,0.6 0.73,1.56 1.17,2.38 a 12.14,12.14 0 0 0 1.43,2.32 25.76,25.76 0 0 0 3.62,3.15 c 0.48,0.33 1,0.64 1.48,1 a 22.35,22.35 0 0 1 2.28,1.57 10.71,10.71 0 0 1 2.9,3.8 l 0.08,0.19 a 4.7,4.7 0 0 0 0.85,1.41 h -0.06 a 69.09,69.09 0 0 1 -1,9.61 c -0.06,0.33 -0.11,0.69 -0.17,1.08 -0.31,2.22 -0.69,5 -2.75,5.41 l -1.3,0.27 c -4.52,1 -6.9,1.81 -11.5,1.14 l -4,-0.48 a 21.54,21.54 0 0 0 6.8,1.67 43.41,43.41 0 0 0 8.88,-1.26 l 1.29,-0.27 a 3.44,3.44 0 0 0 1.11,-0.44 c 3.71,3.35 8.59,5.85 14.85,7.65 a 37.93,37.93 0 0 1 -4.79,1.77 l -3,1.2 a 29.38,29.38 0 0 0 6.06,-1.7 30.44,30.44 0 0 0 5.87,-2.95 16.72,16.72 0 0 0 4.35,-3.86 c 0.09,-0.12 0.38,-0.42 0.34,-0.55 a 5.24,5.24 0 0 0 -1.41,1.12 c -0.53,0.48 -1,0.78 -1.46,1.17 a 32,32 0 0 1 -3,2.08 7.53,7.53 0 0 1 -1.36,0.65 3.63,3.63 0 0 1 -2.12,0.08 z"
     id="path16" />
  <path
     d="m 3730.4642,176.13665 c 0.1,-4.24 -1.89,-7.91 -5.91,-10.94 a 33.34,33.34 0 0 0 10.43,-11.13 l -1.76,1.89 c -6.31,7.34 -10.29,10.42 -19.24,12.14 l -2.86,0.36 c 0.63,0 1.25,0.08 1.87,0.08 a 21.43,21.43 0 0 0 10.53,-2.72 c 4.15,3 6.05,6.49 5.81,10.71 a 17.79,17.79 0 0 0 -8.5,7.41 l 2.22,-2 a 20.77,20.77 0 0 1 7.09,-4.84 c 0,0 0.27,-0.05 0.27,-0.09 3.13,-1.09 6.7,-1.14 11.87,-0.44 a 6.74,6.74 0 0 0 1,0.08 h 2.31 c -5.94,-1.66 -10.95,-1.84 -15.13,-0.51 z"
     id="path17" />
  <path
     d="m 3709.2142,136.93665 c 0.42,-6 -2.6,-10.79 -9,-14.39 a 43.45,43.45 0 0 0 12.25,-9.86 l -2.6,1.83 c -7.52,5.87 -12.44,8.77 -21.42,11.42 l -1.23,0.75 a 37.68,37.68 0 0 0 11.83,-3.54 c 6.72,3.57 9.67,8.26 9,14.3 a 19.79,19.79 0 0 0 -7.81,7 l 2,-1.9 c 6.34,-5.37 11.49,-6 20.26,-5.81 l 1.61,-0.16 c -5.81,-1.4 -10.74,-1.24 -14.89,0.36 z"
     id="path18" />
  <path
     d="m 3690.7442,75.336651 c -3.81,-4.85 -9.45,-7.14 -16.86,-6.67 l 0.15,-0.34 c 7.83,-0.78 12.81,1 16.66,6.51 z"
     id="path19" />
  <path
     d="m 3699.4142,95.396651 -0.46,0.85 c 1.19,-5.56 0,-11.35 -3.79,-17.6 l 0.63,0.23 c 4.07,6.52 5.02,10.85 3.62,16.52 z"
     id="path20" />
  <path
     d="m 3632.8742,48.236651 c 11.11,1.59 19.67,6.1 25.47,13.89 -5.41,-9.23 -14.14,-13.69 -25.47,-13.89 z"
     id="path21" />
  <path
     d="m 3571.9242,39.086651 1.09,-0.33 c 14,-3.6 28.68,-1.77 42.83,5.43 l -0.64,-0.49 c -14.46,-9.36 -29.14,-10.52 -43.28,-4.61 z"
     id="path22" />
  <path
     d="m 3456.8642,696.24665 a 18.84,18.84 0 0 1 -9.41,-7.62 28.72,28.72 0 0 1 -2.86,-5.49 l -0.06,-0.13 a 20.78,20.78 0 0 1 -1.74,-6.33 9.23,9.23 0 0 1 1,-3.82 17.7,17.7 0 0 1 4.77,-6.62 c 7.09,-5.88 16,-10 26.68,-12.39 6.28,-0.24 9.89,3.52 10.82,11.13 a 67.38,67.38 0 0 1 -1.1,20.38 c -0.74,4.7 -2.91,7.71 -6.66,9.2 a 40.57,40.57 0 0 1 -12,2.47 c -1.1,0.06 -2.39,0.12 -3.69,0.1 a 18.57,18.57 0 0 1 -5.75,-0.88 z"
     className="tooth replace"
     id="27" />
  <path
     d="m 3422.6242,667.16665 a 28.51,28.51 0 0 1 -7.73,-4.38 16.43,16.43 0 0 1 -6.24,-8.92 c -1.55,-6 1.14,-11.62 4,-16.36 2.26,-3.76 6.28,-6.58 12.29,-8.61 a 49.71,49.71 0 0 1 17,-2.72 h 0.34 c 4.44,0.12 10.78,0.82 14.55,5.59 3.18,4 2.68,9.19 1.88,13.25 -3.22,16.48 -11.24,24.72 -23.83,24.49 a 41,41 0 0 1 -12.26,-2.34 z"
     className="tooth replace"
     id="28" />
  <path
     d="m 3410.5542,631.54665 a 45.89,45.89 0 0 1 -12.25,-1.76 c -3.55,-1 -7.22,-4.11 -8.63,-5.4 a 16.27,16.27 0 0 1 -3.94,-5.46 19.19,19.19 0 0 1 0.53,-15.57 24,24 0 0 1 11.14,-11.58 c 6.25,-2.89 13,-5.67 19.92,-6.36 a 24.17,24.17 0 0 1 16.47,4 24.48,24.48 0 0 1 9.91,16.4 14.56,14.56 0 0 1 -3.66,11.81 v 0 c -8.51,9.26 -18.4,13.92 -29.49,13.92 z"
     className="tooth replace"
     id="29" />
  <path
     d="m 3360.7442,567.94665 a 66.06,66.06 0 0 0 7,10.59 c 3.37,4.1 7.14,8.26 11.8,10.92 a 16.49,16.49 0 0 0 7.66,2.34 h 0.13 a 24,24 0 0 0 6.62,-1.12 c 0.69,-0.19 1.37,-0.37 2,-0.53 a 80.47,80.47 0 0 0 9.49,-2.81 c 5.86,-2.16 11,-5.12 16.45,-8.25 l 0.74,-0.43 c 7.33,-4.21 8.93,-13.94 6.22,-20.53 -1,-2.41 -1.94,-5.14 -2.94,-8 -3.07,-8.89 -6.55,-19 -13.3,-25.39 l -0.28,-0.22 -0.1,-0.07 c -4.47,-3.43 -11.28,-4.82 -16.21,-5.38 a 41.55,41.55 0 0 0 -18.37,2.17 44.22,44.22 0 0 0 -8.42,4 c -2.34,1.44 -5.25,3.23 -7,5.75 -0.31,0.46 -0.64,0.94 -0.93,1.46 -1.46,2.65 -1.63,5.54 -1.8,8.34 -0.05,0.85 -0.1,1.71 -0.19,2.57 -0.23,2.21 -0.46,4.42 -0.73,6.62 -0.11,0.92 -0.29,1.86 -0.47,2.76 a 27.27,27.27 0 0 0 -0.58,3.76 c -0.24,4.19 1.09,7.62 3.21,11.45 z"
     className="tooth replace"
     id="30" />
  <path
     d="m 3365.0642,523.15665 a 21.06,21.06 0 0 1 -9,-1.86 c -5.66,-2.69 -8.49,-8.39 -11.22,-13.91 -0.5,-1 -1,-2 -1.51,-3 -0.79,-1.51 -1.72,-3 -2.63,-4.46 -1.82,-2.92 -3.71,-5.94 -4.58,-9.32 -1,-4 -1.77,-9.87 0.56,-15.45 2.64,-6.3 8.61,-11.18 18.27,-14.91 9.66,-3.73 17.59,-4.44 24.3,-2.17 a 28.52,28.52 0 0 1 13.23,9.94 c 2.17,2.81 3.57,6.5 4.93,10.08 0.43,1.13 0.86,2.25 1.29,3.3 0.61,1.46 1.31,2.8 2,4.1 a 29.53,29.53 0 0 1 3,7.34 h 0.13 c 1.43,4.08 1.79,7.4 1.11,10.14 a 15.67,15.67 0 0 1 -5.28,8.12 c -3.63,3 -8.13,4.6 -12.48,6.16 l -1.57,0.57 -2.8,1 a 76.33,76.33 0 0 1 -11.6,3.67 31,31 0 0 1 -6.15,0.66 z"
     className="tooth replace"
     id="31" />
  <path
     d="m 3366.0442,465.74665 a 8.71,8.71 0 0 0 5.32,-1.78 20,20 0 0 1 -9.16,0.86 9.71,9.71 0 0 0 3.84,0.92 z"
     id="path23" />
  <path
     d="m 3388.0642,510.92665 a 21.4,21.4 0 0 0 -7.86,1.18 22.47,22.47 0 0 0 -6.84,4 c 2.1,-1.77 11.63,-5.17 14.7,-5.18 z"
     id="path24" />
  <path
     d="m 3381.4542,512.51665 c 0.72,-6.23 -1.51,-12 -6.62,-17.14 l -0.78,0.77 c 4.86,4.9 7,10.37 6.31,16.24 z"
     id="path25" />
  <path
     d="m 3349.5142,502.04665 c 9.52,0 18,-2 25.21,-6.15 l -0.55,-1 c -8.67,5.53 -18.95,6.61 -24.66,7.15 z"
     id="path26" />
  <path
     d="m 3374.5142,496.11665 a 6.47,6.47 0 0 0 1.23,-6.52 c 5.77,0.89 11.79,-0.34 18.86,-3.85 -4,1.65 -13.56,4.82 -19.59,2.61 l -1,-0.2 0.39,0.94 c 1,2.5 0.78,4.55 -0.72,6.3 z"
     id="path27" />
  <path
     d="m 3374.3842,489.05665 1.05,-0.33 a 23.66,23.66 0 0 0 -9,-12.68 l -0.19,-0.13 h -0.22 c -8.46,2.08 -17.9,0.51 -19.07,0.38 a 46.6,46.6 0 0 0 19,0.74 22.67,22.67 0 0 1 8.43,12.02 z"
     id="path28" />
  <path
     d="m 3366.6842,476.41665 c 1.59,-2.95 2,-6.64 1.15,-11.29 l -1.09,0.21 c 0.77,4.41 0.43,7.87 -1,10.59 z"
     id="path29" />
  <path
     d="m 3376.4242,570.17665 -1.08,0.52 c -0.32,0.08 0.12,-0.14 1.08,-0.52 z"
     id="path30" />
  <path
     d="m 3388.6742,542.91665 a 17.64,17.64 0 0 0 1.49,-11.84 0.72,0.72 0 0 0 -0.83,-0.55 21.43,21.43 0 0 1 -4.12,0.29 c -1,0 -2.06,-0.09 -3.18,-0.22 a 40,40 0 0 0 14.64,-3.66 12,12 0 0 1 -5,3 0.71,0.71 0 0 0 -0.48,0.83 18.68,18.68 0 0 1 -1.57,12.62 25.41,25.41 0 0 1 10.26,10.52 v 0 0 0.06 a 33.74,33.74 0 0 0 19.9,-3.87 c -4.23,3.49 -10.33,5.18 -18.15,5 l -1.43,-0.06 a 13.25,13.25 0 0 1 -0.86,10.26 c 0.32,0.13 0.64,0.26 0.95,0.42 3.51,1.88 5.67,5.75 6.62,11.79 a 19.45,19.45 0 0 1 8,0 38.86,38.86 0 0 0 -17.17,4.56 23.57,23.57 0 0 1 8.15,-4.22 c -0.58,-5.95 -2.81,-9.1 -6.07,-11.08 -5.16,-3.12 -19.25,1.73 -23.43,3.41 8,-3.81 16,-6.85 21.93,-5.16 1.69,-2.95 1.93,-6.41 0.67,-10.3 l -0.1,-0.32 c -5.23,-13.17 -23.62,-13.51 -30,-13.57 7.85,-0.76 14.43,0.12 19.78,2.09 z"
     id="path31" />
  <path
     d="m 3422.4442,600.52665 c -1.68,-2.43 -4.38,-4 -8,-4.63 -2.68,2 -7.48,3.51 -13.6,5.06 7.53,-2.66 13.73,-5.47 16,-8.76 a 4.21,4.21 0 0 1 -1.31,2.79 12.44,12.44 0 0 1 7.85,4.92 c 0.13,0.18 0.23,0.39 0.35,0.59 1.66,-2.23 4.31,-3.52 7.52,-4.29 a 15.34,15.34 0 0 0 -6.58,4.73 1.1,1.1 0 0 0 -0.12,1.11 c 1.52,3.54 1.7,8.29 0.6,14.37 a 25.88,25.88 0 0 1 7.61,-1 h 0.35 a 65.73,65.73 0 0 0 -19.08,6.83 34.73,34.73 0 0 1 9.94,-5.44 c 1.37,-7.32 0.88,-12.8 -1.53,-16.28 z"
     id="path32" />
  <path
     d="m 3447.5242,648.16665 c -1.9,-6.7 -5.82,-10.31 -12,-11 a 1.59,1.59 0 0 0 -1.13,0.35 c -2.59,2 -7.45,3.27 -12,4.27 0,0 9.75,-3.51 11.88,-5.64 a 11.34,11.34 0 0 0 1.78,-3.65 3.78,3.78 0 0 1 0,3 0.55,0.55 0 0 0 0.43,0.74 c 5.85,1 9.81,4.63 11.81,10.95 a 0.62,0.62 0 0 0 0.91,0.37 6.75,6.75 0 0 1 3.18,-1.06 42.12,42.12 0 0 0 -10.95,12.15 c 1.87,-4.31 3.78,-7.45 5.75,-9.45 a 1,1 0 0 0 0.34,-1.03 z"
     id="path33" />
  <path
     d="m 3476.3642,690.38665 a 50.19,50.19 0 0 1 -27,-16.77 c 5.09,8.81 14.16,14.46 27,16.77 z"
     id="path34" />
  <path
     d="m 3487.2442,695.33665 a 110.51,110.51 0 0 0 27.12,8.78 h -0.12 c -10.44,-0.16 -19.5,-3.12 -27,-8.78 z"
     id="path35" />
  <path
     d="m 3554.2742,702.80665 a 33.16,33.16 0 0 1 -12.92,2.64 23.71,23.71 0 0 1 -11.39,-3.1 49.43,49.43 0 0 0 24.31,0.46 z"
     id="path36" />
  <path
     d="m 3760.0542,466.43665 a 8.65,8.65 0 0 1 -5.28,-1.87 20.05,20.05 0 0 0 9.14,1 9.86,9.86 0 0 1 -3.86,0.87 z"
     id="path37" />
  <path
     d="m 3737.2242,511.21665 a 21.27,21.27 0 0 1 7.83,1.32 22.4,22.4 0 0 1 6.76,4.11 c -2.07,-1.84 -11.52,-5.31 -14.59,-5.43 z"
     id="path38" />
  <path
     d="m 3743.7942,512.92665 c -0.6,-6.24 1.73,-12 6.94,-17 l 0.76,0.79 c -5,4.81 -7.17,10.23 -6.6,16.12 z"
     id="path39" />
  <path
     d="m 3775.9242,503.03665 c -9.52,-0.15 -18,-2.37 -25.09,-6.61 l 0.56,-0.94 c 8.57,5.64 18.83,6.9 24.53,7.55 z"
     id="path40" />
  <path
     d="m 3751.0342,496.64665 a 6.45,6.45 0 0 1 -1.11,-6.53 c -5.79,0.78 -11.79,-0.55 -18.79,-4.19 4,1.72 13.47,5.06 19.54,3 l 1,-0.18 -0.41,0.94 c -1.07,2.47 -0.87,4.53 0.61,6.3 z"
     id="path41" />
  <path
     d="m 3751.2942,489.60665 -1,-0.36 a 23.68,23.68 0 0 1 9.22,-12.52 l 0.18,-0.12 h 0.22 c 8.43,2.24 17.9,0.84 19.07,0.73 a 46.58,46.58 0 0 1 -19.05,0.39 22.63,22.63 0 0 0 -8.64,11.88 z"
     id="path42" />
  <path
     d="m 3759.2142,477.09665 c -1.53,-3 -1.84,-6.67 -0.94,-11.31 l 1.08,0.21 c -0.85,4.39 -0.57,7.85 0.84,10.59 z"
     id="path43" />
  <path
     d="m 3567.5642,700.05665 a 33.06,33.06 0 0 0 12.86,2.87 23.64,23.64 0 0 0 11.45,-2.9 49.27,49.27 0 0 1 -24.31,0.03 z"
     id="path44" />
</svg>
