<svg xmlns="http://www.w3.org/2000/svg" width="504" height="319" viewBox="0 0 504 319">
  <!-- white k right portion -->
  <path transform="matrix(1,0,0,-1,224.70801,133.76319)" d="M0 0-72.333-69.686-71.087-70.871-52.786-88.261-88.129-88.174-105.798-71.952-104.373-70.527-36.707-5.757V29.425H-13.374V18.529L-13.387 17.328C-3.171 25.693 9.809 30.508 24.043 30.508 51.521 30.508 74.63 11.804 81.332-13.569L64.675-30.575C64.701-29.968 64.715-29.356 64.715-28.742 64.715-6.28 46.505 11.929 24.043 11.929 24.043 11.929 14.418 12.628 0 0" fill="#ffffff"/>
  <!-- gold pd -->
  <path transform="matrix(1,0,0,-1,352.001,145.25537)" d="M0 0C0 0-36.379-36.124-58.25-58.75-80-81.25-102.25-77.5-102.25-77.5-115.245-77.5-128.264-72.315-138.031-65.222L-140.67-63.248-140.667-65.75V-115.417H-164V-34.5L-142.831-13.269C-144.264-26.108-139.238-36.217-139.238-36.217-132.421-49.125-118.863-57.922-103.25-57.922-103.25-57.922-91.5-59.25-79.333-50.083L-2 26.917 1.437 29.956C11.385 37.514 23.794 42 37.25 42 52.388 42 66.192 36.315 76.666 26.974V83.917H100V-75.75H76.666V-61.473C66.192-70.814 52.388-76.5 37.25-76.5 10.215-76.5-12.591-58.393-19.702-33.646L-3.417-16.661C-3.42-16.856-3.422-17.054-3.422-17.25-3.422-39.712 14.787-57.922 37.25-57.922 59.712-57.922 77.922-39.712 77.922-17.25 77.922 5.212 59.712 23.421 37.25 23.421 37.25 23.421 27.258 23.635 20.734 18.552 14.397 13.613 0 0 0 0" fill="#faaf40"/>
  <!-- white k left stem -->
  <path transform="matrix(1,0,0,-1,126.036609,183.62348)" d="M0 0-25.957 23.28 38.422 79.566 6.254 79.578-39.036 40.283V122.618H-60.536V-37.382H-39.036V6.132L-15.599-14.807Z" fill="#ffffff"/>
</svg>